<svg xmlns="http://www.w3.org/2000/svg" version="1.1" xmlns:xlink="http://www.w3.org/1999/xlink" xmlns:svgjs="http://svgjs.com/svgjs" width="1000" height="1000"><g transform="matrix(11.574074074074073,0,0,11.574074074074073,41.66668280142329,-0.000008067378189480223)"><svg xmlns="http://www.w3.org/2000/svg" version="1.1" xmlns:xlink="http://www.w3.org/1999/xlink" xmlns:svgjs="http://svgjs.com/svgjs" width="79.2" height="86.4"><svg id="b" xmlns="http://www.w3.org/2000/svg" width="79.2" height="86.4" viewBox="0 0 26.4 28.8"><g id="c"><path d="m0,28.8V0h26.4v28.8H0Zm21.53-3.26c-.85,0-1.67,0-2.49,0-.43,0-.43,0-.43-.43,0-5.41,0-10.81,0-16.22,0-.21.05-.31.28-.31,1.14,0,2.28.01,3.42.01.18,0,.24.07.24.25,0,.94,0,1.88,0,2.83,0,.17-.06.23-.22.22-.31,0-.61-.02-.92,0-.27,0-.36-.09-.35-.37.02-.5,0-1.01,0-1.52h-1.35v3.3s.05.03.07.03c1.32,0,2.64,0,3.95.02.16,0,.19-.07.19-.22,0-1.79,0-3.57-.01-5.36,0-.17,0-.33,0-.51h-6.81v19.45h4.43v-1.18ZM5.12,10c0,.57,0,1.11,0,1.64,0,.15-.02.25-.21.25-.35,0-.69,0-1.04,0-.17,0-.25-.07-.24-.25,0-.92,0-1.84,0-2.77,0-.21.07-.29.27-.29,1.12,0,2.24,0,3.36,0,.22,0,.31.06.31.31,0,4.95,0,9.9,0,14.85,0,.53-.01,1.05,0,1.58,0,.18-.07.24-.25.23-.26-.01-.52,0-.77,0-.63,0-1.26,0-1.89,0v1.17h4.41V7.27H2.28v6.04s.07.03.1.03c1.32,0,2.63,0,3.95,0,.06,0,.16-.12.17-.19,0-.98,0-1.96,0-2.94,0-.07-.02-.13-.02-.21h-1.34Zm7.22-7.82v24.53h1.51c0-8.2.01-16.37-.01-24.53h-1.5Zm-.82,24.53V4.42h-1.47v22.29h1.47Zm3.14-22.29v22.31c.41,0,.81-.01,1.2,0,.21,0,.26-.05.26-.26,0-7.2,0-14.4,0-21.6v-.45h-1.46Z" fill="#fff"></path><path d="m21.53,25.54v1.18h-4.43V7.27h6.81c0,.18,0,.34,0,.51,0,1.79,0,3.57.01,5.36,0,.15-.03.22-.19.22-1.32,0-2.64-.01-3.95-.02-.02,0-.03-.02-.07-.03v-3.3h1.35c0,.51.02,1.02,0,1.52-.01.28.09.38.35.37.31,0,.61,0,.92,0,.17,0,.22-.05.22-.22,0-.94,0-1.88,0-2.83,0-.18-.06-.25-.24-.25-1.14,0-2.28,0-3.42-.01-.22,0-.28.09-.28.31,0,5.41,0,10.81,0,16.22,0,.44,0,.44.43.43.82,0,1.64,0,2.49,0Z" fill="#05538a"></path><path d="m5.12,10h1.34c0,.08.02.14.02.21,0,.98.01,1.96,0,2.94,0,.07-.11.19-.17.19-1.32,0-2.63,0-3.95,0-.03,0-.05-.02-.1-.03v-6.04h6.78v19.44h-4.41v-1.17c.63,0,1.26,0,1.89,0,.26,0,.52,0,.77,0,.18,0,.25-.05.25-.23,0-.53,0-1.05,0-1.58,0-4.95,0-9.9,0-14.85,0-.25-.09-.31-.31-.31-1.12,0-2.24,0-3.36,0-.2,0-.28.08-.27.29,0,.92,0,1.84,0,2.77,0,.19.08.25.24.25.35,0,.69,0,1.04,0,.18,0,.21-.1.21-.25,0-.53,0-1.07,0-1.64Z" fill="#05538a"></path><path d="m12.34,2.18h1.5c.02,8.16,0,16.34.01,24.53h-1.51V2.18Z" fill="#05538a"></path><path d="m11.51,26.71h-1.47V4.42h1.47v22.29Z" fill="#05538a"></path><path d="m14.65,4.42h1.46v.45c0,7.2,0,14.4,0,21.6,0,.22-.05.27-.26.26-.39-.02-.79,0-1.2,0V4.42Z" fill="#05538a"></path></g></svg></svg></g></svg>